<svg xmlns="http://www.w3.org/2000/svg" xmlns:lucid="lucid" width="1680" height="1420"><g lucid:page-tab-id="0_0"><path d="M-95.43-140h1870.86v2581.67H-95.43z" fill="#fff"/><path d="M20 26a6 6 0 0 1 6-6h1628a6 6 0 0 1 6 6v1368a6 6 0 0 1-6 6H26a6 6 0 0 1-6-6z" stroke="#5e5e5e" stroke-width="3" fill="#f2f3f5"/><path d="M124.57 526a6 6 0 0 1 6-6h568a6 6 0 0 1 6 6v68a6 6 0 0 1-6 6h-568a6 6 0 0 1-6-6zM124.57 266a6 6 0 0 1 6-6h568a6 6 0 0 1 6 6v68a6 6 0 0 1-6 6h-568a6 6 0 0 1-6-6zM124.57 346a6 6 0 0 1 6-6h568a6 6 0 0 1 6 6v68a6 6 0 0 1-6 6h-568a6 6 0 0 1-6-6zM124.57 606a6 6 0 0 1 6-6h568a6 6 0 0 1 6 6v68a6 6 0 0 1-6 6h-568a6 6 0 0 1-6-6zM124.57 806a6 6 0 0 1 6-6h568a6 6 0 0 1 6 6v68a6 6 0 0 1-6 6h-568a6 6 0 0 1-6-6zM124.57 886a6 6 0 0 1 6-6h568a6 6 0 0 1 6 6v68a6 6 0 0 1-6 6h-568a6 6 0 0 1-6-6zM124.57 1086a6 6 0 0 1 6-6h568a6 6 0 0 1 6 6v68a6 6 0 0 1-6 6h-568a6 6 0 0 1-6-6zM124.57 1166a6 6 0 0 1 6-6h568a6 6 0 0 1 6 6v68a6 6 0 0 1-6 6h-568a6 6 0 0 1-6-6zM964.57 526a6 6 0 0 1 6-6h568a6 6 0 0 1 6 6v68a6 6 0 0 1-6 6h-568a6 6 0 0 1-6-6zM964.57 266a6 6 0 0 1 6-6h568a6 6 0 0 1 6 6v68a6 6 0 0 1-6 6h-568a6 6 0 0 1-6-6zM964.57 346a6 6 0 0 1 6-6h568a6 6 0 0 1 6 6v68a6 6 0 0 1-6 6h-568a6 6 0 0 1-6-6zM964.57 606a6 6 0 0 1 6-6h568a6 6 0 0 1 6 6v68a6 6 0 0 1-6 6h-568a6 6 0 0 1-6-6zM964.57 806a6 6 0 0 1 6-6h568a6 6 0 0 1 6 6v68a6 6 0 0 1-6 6h-568a6 6 0 0 1-6-6zM964.57 886a6 6 0 0 1 6-6h568a6 6 0 0 1 6 6v68a6 6 0 0 1-6 6h-568a6 6 0 0 1-6-6zM964.57 1086a6 6 0 0 1 6-6h568a6 6 0 0 1 6 6v68a6 6 0 0 1-6 6h-568a6 6 0 0 1-6-6zM964.57 1166a6 6 0 0 1 6-6h568a6 6 0 0 1 6 6v68a6 6 0 0 1-6 6h-568a6 6 0 0 1-6-6z" stroke="#5e5e5e" stroke-width="3" fill="#e3fae3"/><path d="M854.57 331.17c0 11.05-8.96 20-20 20-11.05 0-20-8.95-20-20 0-11.04 8.95-20 20-20 11.04 0 20 8.96 20 20zM854.57 605c0 11.05-8.96 20-20 20-11.05 0-20-8.95-20-20s8.95-20 20-20c11.04 0 20 8.95 20 20zM854.57 880c0 11.05-8.96 20-20 20-11.05 0-20-8.95-20-20s8.95-20 20-20c11.04 0 20 8.95 20 20zM854.57 1160c0 11.05-8.96 20-20 20-11.05 0-20-8.95-20-20s8.95-20 20-20c11.04 0 20 8.95 20 20zM564.57 470c0 11.05-8.96 20-20 20-11.05 0-20-8.95-20-20s8.95-20 20-20c11.04 0 20 8.95 20 20zM304.57 470c0 11.05-8.96 20-20 20-11.05 0-20-8.95-20-20s8.95-20 20-20c11.04 0 20 8.95 20 20zM564.57 740c0 11.05-8.96 20-20 20-11.05 0-20-8.95-20-20s8.95-20 20-20c11.04 0 20 8.95 20 20zM304.57 740c0 11.05-8.96 20-20 20-11.05 0-20-8.95-20-20s8.95-20 20-20c11.04 0 20 8.95 20 20zM564.57 1020c0 11.05-8.96 20-20 20-11.05 0-20-8.95-20-20s8.95-20 20-20c11.04 0 20 8.95 20 20z" stroke="#5e5e5e" stroke-width="3" fill="#ffe342"/><path d="M304.57 1020c0 11.05-8.96 20-20 20-11.05 0-20-8.95-20-20s8.95-20 20-20c11.04 0 20 8.95 20 20z" stroke="#4c535d" stroke-width="3" fill="#ffe342"/><path d="M1404.57 1020c0 11.05-8.96 20-20 20-11.05 0-20-8.95-20-20s8.95-20 20-20c11.04 0 20 8.95 20 20zM1144.57 1020c0 11.05-8.96 20-20 20-11.05 0-20-8.95-20-20s8.95-20 20-20c11.04 0 20 8.95 20 20zM1404.57 740c0 11.05-8.96 20-20 20-11.05 0-20-8.95-20-20s8.95-20 20-20c11.04 0 20 8.95 20 20zM1144.57 740c0 11.05-8.96 20-20 20-11.05 0-20-8.95-20-20s8.95-20 20-20c11.04 0 20 8.95 20 20zM1404.57 470c0 11.05-8.96 20-20 20-11.05 0-20-8.95-20-20s8.95-20 20-20c11.04 0 20 8.95 20 20zM1144.57 470c0 11.05-8.96 20-20 20-11.05 0-20-8.95-20-20s8.95-20 20-20c11.04 0 20 8.95 20 20z" stroke="#5e5e5e" stroke-width="3" fill="#ffe342"/><path d="M704.57 26a6 6 0 0 1 6-6h248a6 6 0 0 1 6 6v52.7a6 6 0 0 1-6 6h-248a6 6 0 0 1-6-6z" stroke="#5e5e5e" stroke-width="3"/><path d="M854.57 470c0 11.05-8.96 20-20 20-11.05 0-20-8.95-20-20s8.95-20 20-20c11.04 0 20 8.95 20 20zM854.57 740c0 11.05-8.96 20-20 20-11.05 0-20-8.95-20-20s8.95-20 20-20c11.04 0 20 8.95 20 20zM854.57 1020c0 11.05-8.96 20-20 20-11.05 0-20-8.95-20-20s8.95-20 20-20c11.04 0 20 8.95 20 20zM854.57 192.34c0 11.05-8.96 20-20 20-11.05 0-20-8.95-20-20 0-11.04 8.95-20 20-20 11.04 0 20 8.96 20 20zM1404.57 192.34c0 11.05-8.96 20-20 20-11.05 0-20-8.95-20-20 0-11.04 8.95-20 20-20 11.04 0 20 8.96 20 20zM1144.57 192.34c0 11.05-8.96 20-20 20-11.05 0-20-8.95-20-20 0-11.04 8.95-20 20-20 11.04 0 20 8.96 20 20zM564.57 192.34c0 11.05-8.96 20-20 20-11.05 0-20-8.95-20-20 0-11.04 8.95-20 20-20 11.04 0 20 8.96 20 20zM304.57 192.34c0 11.05-8.96 20-20 20-11.05 0-20-8.95-20-20 0-11.04 8.95-20 20-20 11.04 0 20 8.96 20 20zM854.57 1300c0 11.05-8.96 20-20 20-11.05 0-20-8.95-20-20s8.95-20 20-20c11.04 0 20 8.95 20 20zM1404.57 1300c0 11.05-8.96 20-20 20-11.05 0-20-8.95-20-20s8.95-20 20-20c11.04 0 20 8.95 20 20zM1144.57 1300c0 11.05-8.96 20-20 20-11.05 0-20-8.95-20-20s8.95-20 20-20c11.04 0 20 8.95 20 20zM564.57 1300c0 11.05-8.96 20-20 20-11.05 0-20-8.95-20-20s8.95-20 20-20c11.04 0 20 8.95 20 20zM304.57 1300c0 11.05-8.96 20-20 20-11.05 0-20-8.95-20-20s8.95-20 20-20c11.04 0 20 8.95 20 20z" stroke="#5e5e5e" stroke-width="3" fill="#ffe342"/></g></svg>